<?xml version="1.0" encoding="utf-8"?>
<!-- Generator: Adobe Illustrator 21.0.2, SVG Export Plug-In . SVG Version: 6.00 Build 0)  -->
<svg version="1.1" id="Layer_1" xmlns="http://www.w3.org/2000/svg" xmlns:xlink="http://www.w3.org/1999/xlink" x="0px" y="0px"
	 viewBox="0 0 700 700" style="enable-background:new 0 0 700 700;" xml:space="preserve">
<style type="text/css">
	.st0{fill:#4285F4;}
	.st1{fill:none;}
	.st2{font-family:'LilitaOne';}
	.st3{font-size:72px;}
	.st4{letter-spacing:3;}
	.st5{font-family:'Pacifico-Regular';}
	.st6{font-size:36px;}
</style>
<g>
	<g>
		<path class="st0" d="M368.4,206.3c-1.1,1.8-2,3.8-2.9,5.8c-4.4,11.1-4.3,22.9-4.4,44.2l-0.3,37.2l22.2,0.2l19.6,0.1l16.5,0.1
			l7.5,0.1l0.1-17.9c0.1-17.9,0.1-17.9,12.3-29.9l24.3-24c12.2-12,12.2-12,19.6-36.6l19.2-63.1c1.9-6.3-3.8-10.4-10-10.5l0,0
			c-4.3,0-8.8,1.8-11.3,6.1L468.1,140l-9.4,16.2c-9.4,16.2-9.4,16.2-27,32.4l-17.6,16.2l-1.1,1c-2,1.8-5.1,1.7-6.9-0.2
			c-1.8-2-1.7-5.1,0.2-6.9c0.3-0.3,0.6-0.5,1-0.7l22.4-19.9c2.3-2,3.7-4.9,3.9-8c0.1-3.1-1.1-6.1-3.3-8.3c-2.2-2.2-5.2-3.4-8.3-3.2
			c-2.6,0.1-5.1,1.1-7,2.9l-24.9,22.1C380.2,192.2,373.1,198.3,368.4,206.3L368.4,206.3z"/>
		<path class="st0" d="M337,206.3c-4.7-7.9-11.8-14.1-21.7-22.8l-24.9-22.1c-1.9-1.8-4.4-2.8-7-2.9c-3.1-0.1-6.1,1-8.3,3.2
			c-2.2,2.2-3.4,5.2-3.3,8.3c0.1,3.1,1.5,6,3.9,8l22.4,19.9c0.4,0.2,0.7,0.4,1,0.7c2,1.8,2.1,4.9,0.2,6.9c-1.8,2-4.9,2.1-6.9,0.2
			l-1.1-1l-17.6-16.2c-17.6-16.1-17.6-16.1-27-32.4l-9.4-16.2l-12.7-21.9c-2.5-4.3-7-6.1-11.3-6.1l0,0c-6.2,0.1-12,4.1-10,10.5
			l19.2,63.1c7.5,24.6,7.5,24.6,19.6,36.6l24.3,24c12.1,12,12.1,12,12.3,29.9l0.1,17.9l7.5-0.1l16.5-0.1l19.6-0.1l22.2-0.2
			l-0.3-37.2c-0.1-21.3,0-33.1-4.4-44.2C339.1,210,338.1,208.1,337,206.3L337,206.3z"/>
		<polygon class="st0" points="367.9,90.8 367.9,52 337.8,52 337.8,90.8 299,90.8 299,120.8 337.8,120.8 337.8,159.7 367.9,159.7 
			367.9,120.8 406.7,120.8 406.7,90.8 		"/>
	</g>
	<rect x="71.7" y="322.3" class="st1" width="562" height="58"/>
	<text transform="matrix(1 0 0 1 136.1446 373.3279)" class="st0 st2 st3 st4">WAVE  DATA</text>
	<rect x="142.7" y="396.6" class="st1" width="420" height="74"/>
	<text transform="matrix(1 0 0 1 177.3121 430.4382)" class="st5 st6">Your Data is the Cure!</text>
</g>
</svg>
